<svg viewBox="0 0 134 35" xmlns="http://www.w3.org/2000/svg"><path d="m117.75 19.98h2.38686c2.68031 0 5.73814.29142 5.73814 3.45087 0 2.9551-2.97374 3.36913-5.82223 3.36913h-2.30277zm0-11.78h2.30153c2.642 0 5.19847.25749 5.19847 3.01264 0 2.54179-2.68391 3.18736-5.284 3.18736h-2.216zm-7.75 23.8h12c5.38314 0 12-1.11183 12-8.23033 0-3.62664-2.06789-5.756-6.073-6.5684v-.08561c3.3594-1.10749 5.29667-3.19859 5.29667-6.9491-.00005-5.11665-4.62527-8.16656-10.22367-8.16656h-13zm-24 1h10l9.875-31h-8.16406l-6.66525 23.98464h-.0858l-6.62143-23.98464h-8.46346zm-13-1a42.29411 42.29411 0 0 1 -11.81626 1c-7.97137 0-17.18374-4.03391-17.18374-15.36884 0-11.29457 7.92561-15.63116 18.89333-15.63116a28.73831 28.73831 0 0 1 9.044 1.33179l-.64612 6.5269a15.09976 15.09976 0 0 0 -7.27951-1.93169c-6.47228 0-12.0117 3.07282-12.0117 10.073 0 5.883 4.38445 9.07663 10.20876 9.07663a6.96545 6.96545 0 0 0 2.828-.51364l-.03676-5.56299h-5v-6h13z" fill="#282625"/><path d="m0 35h18v-18h-18z" fill="#ee000c"/><path d="m0 14h21v21h13v-35h-34z" fill="#ff8f18"/></svg>